<svg width="16" height="16" viewBox="0 0 16 16" fill="none" xmlns="http://www.w3.org/2000/svg">
<path d="M1.33331 3.96097C3.66665 6.24875 7.05031 5.26827 7.82158 3.96097C7.93505 3.76867 7.99998 3.54543 7.99998 3.30731C7.99998 2.5853 7.40305 2 6.66665 2C5.93027 2 5.33331 2.5853 5.33331 3.30731" stroke="#757575" stroke-linecap="round"/>
<path d="M11.3334 5.95209C11.3334 4.87398 12.0796 4 13 4C13.9205 4 14.6667 4.87398 14.6667 5.95209C14.6667 6.43013 14.52 6.86807 14.2764 7.2074C12.8976 9.461 6.18429 8.61093 2.66669 7.9042" stroke="#757575" stroke-linecap="round"/>
<path d="M8.72358 13.2582C8.86085 13.6904 9.23125 14 9.66665 14C10.2189 14 10.6666 13.5018 10.6666 12.8873C10.6666 12.6784 10.6149 12.4829 10.5248 12.3158C9.66658 10.6616 5.33329 9.54922 1.33331 12.5164" stroke="#757575" stroke-linecap="round"/>
<path d="M12.6667 10.3334H14" stroke="#757575" stroke-linecap="round" stroke-linejoin="round"/>
</svg>
