<svg width="76" height="54" viewBox="0 0 76 54" fill="none" xmlns="http://www.w3.org/2000/svg">
<circle cx="56.675" cy="18.675" r="18.675" fill="#FFB400"/>
<path d="M0 36.9506C0 27.7459 7.46192 20.284 16.6667 20.284H51.2346C60.4393 20.284 67.9012 27.7459 67.9012 36.9506C67.9012 46.1554 60.4393 53.6173 51.2346 53.6173H16.6667C7.46192 53.6173 0 46.1554 0 36.9506Z" fill="#E0E0E0"/>
<path d="M33.9506 53.6173C43.1554 53.6173 50.6173 46.1554 50.6173 36.9506V19.6667C50.6173 10.4619 43.1554 3 33.9506 3C24.7459 3 17.284 10.4619 17.284 19.6667V36.9506C17.284 46.1554 24.7459 53.6173 33.9506 53.6173Z" fill="#E0E0E0"/>
</svg>
