<svg width="92" height="68" viewBox="0 0 92 68" fill="none" xmlns="http://www.w3.org/2000/svg">
<circle cx="48.1729" cy="5.22234" r="1.85185" fill="#FFB400"/>
<circle cx="75.3334" cy="2.75316" r="1.85185" fill="#FFB400"/>
<circle cx="90.7655" cy="16.9507" r="1.23457" fill="#FFB400"/>
<circle cx="68.5433" cy="23.1235" r="1.23457" fill="#FFB400"/>
<circle cx="83.9754" cy="28.6791" r="1.85185" fill="#FFB400"/>
<path d="M67.9814 12.6638C63.9835 14.1458 61.1358 17.9933 61.1358 22.5062C61.1358 28.3019 65.833 33.0001 71.6296 33.0001C72.3723 33.0001 73.0957 32.9231 73.795 32.7767C71.227 40.0857 64.0607 45.3458 55.6237 45.3458C45.031 45.3458 36.4445 37.0548 36.4445 26.8272C36.4445 16.5997 45.031 8.30872 55.6237 8.30872C60.3305 8.30872 64.6442 9.94627 67.9814 12.6638Z" fill="#FFB400"/>
<path d="M0 50.4321C0 41.2274 7.46192 33.7655 16.6667 33.7655H51.2346C60.4393 33.7655 67.9012 41.2274 67.9012 50.4321C67.9012 59.6369 60.4393 67.0988 51.2346 67.0988H16.6667C7.46192 67.0988 0 59.6369 0 50.4321Z" fill="#E0E0E0"/>
<path d="M33.9506 67.0988C43.1554 67.0988 50.6173 59.6369 50.6173 50.4321V33.1482C50.6173 23.9434 43.1554 16.4815 33.9506 16.4815C24.7459 16.4815 17.284 23.9434 17.284 33.1482V50.4321C17.284 59.6369 24.7459 67.0988 33.9506 67.0988Z" fill="#E0E0E0"/>
</svg>
