<svg width="68" height="76" viewBox="0 0 68 76" fill="none" xmlns="http://www.w3.org/2000/svg">
<path d="M10.6037 43.0992C10.4595 43.0376 10.3041 43.004 10.1464 43.0003C9.98873 42.9966 9.83183 43.0229 9.6847 43.0777C9.53757 43.1324 9.40309 43.2146 9.28895 43.3195C9.1748 43.4243 9.08324 43.5498 9.01948 43.6888L3.10276 56.5204C2.97385 56.8009 2.96592 57.1193 3.0807 57.4054C3.19549 57.6916 3.42359 57.9221 3.71484 58.0463C4.00608 58.1705 4.3366 58.1781 4.6337 58.0675C4.93079 57.957 5.17012 57.7373 5.29903 57.4567L11.2278 44.6136C11.3524 44.3329 11.3567 44.0162 11.2398 43.7325C11.1229 43.4488 10.8942 43.2211 10.6037 43.0992ZM19.4968 43.0992C19.3526 43.0376 19.1972 43.004 19.0395 43.0003C18.8818 42.9966 18.7249 43.0229 18.5778 43.0777C18.4307 43.1324 18.2962 43.2146 18.182 43.3195C18.0679 43.4243 17.9763 43.5498 17.9126 43.6888L6.09113 69.3751C6.0273 69.514 5.99249 69.6637 5.98871 69.8155C5.98492 69.9674 6.01223 70.1185 6.06907 70.2602C6.1259 70.4019 6.21116 70.5314 6.31996 70.6413C6.42877 70.7513 6.55899 70.8395 6.7032 70.901C6.84741 70.9625 7.00278 70.996 7.16044 70.9997C7.3181 71.0033 7.47496 70.977 7.62206 70.9223C7.76917 70.8675 7.90364 70.7854 8.0178 70.6806C8.13196 70.5758 8.22356 70.4504 8.28739 70.3115L20.1448 44.6251C20.2077 44.4841 20.2408 44.3325 20.2422 44.179C20.2435 44.0256 20.2132 43.8734 20.1528 43.7313C20.0925 43.5893 20.0034 43.4603 19.8908 43.3517C19.7782 43.2432 19.6442 43.1574 19.4968 43.0992ZM37.2949 43.0992C37.1507 43.0376 36.9954 43.004 36.8377 43.0003C36.68 42.9966 36.5231 43.0229 36.376 43.0777C36.2288 43.1324 36.0943 43.2146 35.9802 43.3195C35.8661 43.4243 35.7745 43.5498 35.7107 43.6888L23.8413 69.3751C23.7775 69.514 23.7427 69.6637 23.7389 69.8155C23.7351 69.9674 23.7624 70.1185 23.8192 70.2602C23.8761 70.4019 23.9613 70.5314 24.0701 70.6413C24.1789 70.7513 24.3092 70.8395 24.4534 70.901C24.5976 70.9625 24.7529 70.996 24.9106 70.9997C25.0683 71.0033 25.2251 70.977 25.3722 70.9223C25.5193 70.8675 25.6538 70.7854 25.768 70.6806C25.8821 70.5758 25.9737 70.4504 26.0376 70.3115L37.895 44.6251C38.0249 44.3461 38.0347 44.0288 37.9222 43.7428C37.8097 43.4568 37.5842 43.2254 37.2949 43.0992ZM28.3898 43.0992C28.2457 43.0376 28.0903 43.004 27.9326 43.0003C27.7749 42.9966 27.618 43.0229 27.4709 43.0777C27.3237 43.1324 27.1893 43.2146 27.0751 43.3195C26.961 43.4243 26.8694 43.5498 26.8056 43.6888L20.8769 56.5204C20.748 56.8009 20.7401 57.1193 20.8549 57.4054C20.9697 57.6916 21.1978 57.9221 21.489 58.0463C21.7802 58.1705 22.1108 58.1781 22.4079 58.0675C22.705 57.957 22.9443 57.7373 23.0732 57.4567L29.0019 44.6136C29.1273 44.3344 29.1333 44.0188 29.0188 43.7353C28.9042 43.4518 28.6782 43.2233 28.3898 43.0992Z" fill="#B3E5FC"/>
<path d="M27.6354 55.891L29.3077 47H42.2308L40.0756 54.2337C39.7693 55.2618 40.5395 56.2949 41.6123 56.2949C42.9657 56.2949 43.7103 57.8681 42.8523 58.9148L28.8462 76L33.1442 63.0164C33.755 61.1713 32.3811 59.2692 30.4374 59.2692C28.6516 59.2692 27.3053 57.6461 27.6354 55.891Z" fill="url(#paint0_linear_347_211)"/>
<path d="M43.2974 54.714L44.3147 48H51.6767L50.3978 53.3288C50.2455 53.9633 50.7264 54.5733 51.3789 54.5733C52.1828 54.5733 52.6638 55.4674 52.2208 56.1382L44.0517 68.5086L46.6344 58.8235C46.9234 57.7399 46.1066 56.6767 44.9851 56.6767C43.9405 56.6767 43.1409 55.7469 43.2974 54.714Z" fill="url(#paint1_linear_347_211)"/>
<path d="M0 33.9506C0 24.7459 7.46192 17.284 16.6667 17.284H51.2346C60.4393 17.284 67.9012 24.7459 67.9012 33.9506C67.9012 43.1554 60.4393 50.6173 51.2346 50.6173H16.6667C7.46192 50.6173 0 43.1554 0 33.9506Z" fill="#E0E0E0"/>
<path d="M33.9506 50.6173C43.1554 50.6173 50.6173 43.1554 50.6173 33.9506V16.6667C50.6173 7.46192 43.1554 0 33.9506 0C24.7459 0 17.284 7.46192 17.284 16.6667V33.9506C17.284 43.1554 24.7459 50.6173 33.9506 50.6173Z" fill="#E0E0E0"/>
<defs>
<linearGradient id="paint0_linear_347_211" x1="37.1847" y1="47" x2="37.1847" y2="66.3333" gradientUnits="userSpaceOnUse">
<stop stop-color="#E2BC38"/>
<stop offset="1" stop-color="#FFE244"/>
</linearGradient>
<linearGradient id="paint1_linear_347_211" x1="48.8021" y1="48" x2="48.8021" y2="61.6724" gradientUnits="userSpaceOnUse">
<stop stop-color="#E2BC38"/>
<stop offset="1" stop-color="#FFE244"/>
</linearGradient>
</defs>
</svg>
