<svg width="94" height="84" viewBox="0 0 94 84" fill="none" xmlns="http://www.w3.org/2000/svg">
<path d="M26 41.9506C26 32.7459 33.4619 25.284 42.6667 25.284H77.2346C86.4393 25.284 93.9012 32.7459 93.9012 41.9506C93.9012 51.1554 86.4393 58.6173 77.2346 58.6173H42.6667C33.4619 58.6173 26 51.1554 26 41.9506Z" fill="#E0E0E0"/>
<path d="M59.9506 58.6173C69.1554 58.6173 76.6173 51.1554 76.6173 41.9506V24.6667C76.6173 15.4619 69.1554 8 59.9506 8C50.7459 8 43.284 15.4619 43.284 24.6667V41.9506C43.284 51.1554 50.7459 58.6173 59.9506 58.6173Z" fill="#E0E0E0"/>
<path d="M0 33.9506C0 24.7459 7.46192 17.284 16.6667 17.284H51.2346C60.4393 17.284 67.9012 24.7459 67.9012 33.9506C67.9012 43.1554 60.4393 50.6173 51.2346 50.6173H16.6667C7.46192 50.6173 0 43.1554 0 33.9506Z" fill="#E0E0E0"/>
<path d="M33.9506 50.6173C43.1554 50.6173 50.6173 43.1554 50.6173 33.9506V16.6667C50.6173 7.46192 43.1554 0 33.9506 0C24.7459 0 17.284 7.46192 17.284 16.6667V33.9506C17.284 43.1554 24.7459 50.6173 33.9506 50.6173Z" fill="#E0E0E0"/>
<path d="M11.5622 52.0602C11.4757 52.0228 11.3825 52.0025 11.2878 52.0002C11.1932 51.998 11.0991 52.0139 11.0108 52.0472C10.9225 52.0804 10.8419 52.1303 10.7734 52.194C10.7049 52.2576 10.6499 52.3338 10.6117 52.4182L7.06166 60.2088C6.98431 60.3791 6.97955 60.5724 7.04842 60.7462C7.11729 60.9199 7.25416 61.0599 7.4289 61.1353C7.60365 61.2106 7.80196 61.2153 7.98022 61.1482C8.15847 61.081 8.30207 60.9476 8.37942 60.7773L11.9367 52.9797C12.0114 52.8093 12.014 52.617 11.9439 52.4447C11.8737 52.2725 11.7365 52.1343 11.5622 52.0602ZM16.8981 52.0602C16.8115 52.0228 16.7183 52.0025 16.6237 52.0002C16.5291 51.998 16.435 52.0139 16.3467 52.0472C16.2584 52.0804 16.1777 52.1303 16.1092 52.194C16.0407 52.2576 15.9858 52.3338 15.9475 52.4182L8.85468 68.0135C8.81638 68.0978 8.7955 68.1886 8.79323 68.2808C8.79095 68.373 8.80734 68.4648 8.84144 68.5508C8.87554 68.6368 8.92669 68.7155 8.99198 68.7822C9.05726 68.849 9.1354 68.9026 9.22192 68.9399C9.30845 68.9772 9.40167 68.9976 9.49626 68.9998C9.59086 69.002 9.68497 68.986 9.77324 68.9528C9.8615 68.9196 9.94218 68.8697 10.0107 68.8061C10.0792 68.7424 10.1341 68.6663 10.1724 68.582L17.2869 52.9867C17.3246 52.9011 17.3445 52.809 17.3453 52.7158C17.3461 52.6227 17.3279 52.5303 17.2917 52.444C17.2555 52.3578 17.2021 52.2794 17.1345 52.2135C17.0669 52.1477 16.9865 52.0955 16.8981 52.0602ZM27.577 52.0602C27.4904 52.0228 27.3972 52.0025 27.3026 52.0002C27.208 51.998 27.1139 52.0139 27.0256 52.0472C26.9373 52.0804 26.8566 52.1303 26.7881 52.194C26.7196 52.2576 26.6647 52.3338 26.6264 52.4182L19.5048 68.0135C19.4665 68.0978 19.4456 68.1886 19.4433 68.2808C19.4411 68.373 19.4574 68.4648 19.4915 68.5508C19.5256 68.6368 19.5768 68.7155 19.6421 68.7822C19.7074 68.849 19.7855 68.9026 19.872 68.9399C19.9585 68.9772 20.0518 68.9976 20.1464 68.9998C20.241 69.002 20.3351 68.986 20.4233 68.9528C20.5116 68.9196 20.5923 68.8697 20.6608 68.8061C20.7293 68.7424 20.7842 68.6663 20.8225 68.582L27.937 52.9867C28.0149 52.8173 28.0208 52.6246 27.9533 52.451C27.8858 52.2773 27.7505 52.1368 27.577 52.0602ZM22.2339 52.0602C22.1474 52.0228 22.0542 52.0025 21.9595 52.0002C21.8649 51.998 21.7708 52.0139 21.6825 52.0472C21.5942 52.0804 21.5136 52.1303 21.4451 52.194C21.3766 52.2576 21.3216 52.3338 21.2834 52.4182L17.7262 60.2088C17.6488 60.3791 17.644 60.5724 17.7129 60.7462C17.7818 60.9199 17.9187 61.0599 18.0934 61.1353C18.2681 61.2106 18.4665 61.2153 18.6447 61.1482C18.823 61.081 18.9666 60.9476 19.0439 60.7773L22.6012 52.9797C22.6764 52.8101 22.68 52.6186 22.6113 52.4464C22.5425 52.2743 22.4069 52.1356 22.2339 52.0602Z" fill="#B3E5FC"/>
<path d="M50.5174 60.085C50.3938 60.0323 50.2607 60.0035 50.1255 60.0003C49.9903 59.9971 49.8559 60.0197 49.7297 60.0666C49.6036 60.1135 49.4884 60.1839 49.3905 60.2738C49.2927 60.3637 49.2142 60.4713 49.1596 60.5904L44.0881 71.5889C43.9776 71.8293 43.9708 72.1022 44.0692 72.3475C44.1676 72.5928 44.3631 72.7904 44.6127 72.8968C44.8624 73.0033 45.1457 73.0098 45.4003 72.915C45.655 72.8203 45.8601 72.6319 45.9706 72.3915L51.0524 61.3831C51.1592 61.1425 51.1629 60.871 51.0627 60.6278C50.9624 60.3847 50.7665 60.1895 50.5174 60.085ZM58.1401 60.085C58.0165 60.0323 57.8833 60.0035 57.7481 60.0003C57.613 59.9971 57.4785 60.0197 57.3524 60.0666C57.2263 60.1135 57.111 60.1839 57.0132 60.2738C56.9153 60.3637 56.8368 60.4713 56.7822 60.5904L46.6495 82.6072C46.5948 82.7263 46.565 82.8546 46.5618 82.9847C46.5585 83.1149 46.5819 83.2444 46.6306 83.3658C46.6793 83.4873 46.7524 83.5983 46.8457 83.6926C46.9389 83.7868 47.0506 83.8625 47.1742 83.9152C47.2978 83.9679 47.431 83.9966 47.5661 83.9997C47.7012 84.0028 47.8357 83.9803 47.9618 83.9334C48.0879 83.8864 48.2031 83.8161 48.301 83.7262C48.3988 83.6364 48.4773 83.5289 48.5321 83.4098L58.6956 61.393C58.7495 61.2721 58.7778 61.1421 58.779 61.0106C58.7802 60.879 58.7541 60.7486 58.7024 60.6269C58.6507 60.5051 58.5744 60.3945 58.4778 60.3015C58.3813 60.2085 58.2665 60.1349 58.1401 60.085ZM73.3957 60.085C73.2721 60.0323 73.1389 60.0035 73.0037 60.0003C72.8686 59.9971 72.7341 60.0197 72.608 60.0666C72.4818 60.1135 72.3666 60.1839 72.2687 60.2738C72.1709 60.3637 72.0924 60.4713 72.0378 60.5904L61.864 82.6072C61.8093 82.7263 61.7794 82.8546 61.7762 82.9847C61.7729 83.1149 61.7963 83.2444 61.8451 83.3658C61.8938 83.4873 61.9668 83.5983 62.0601 83.6926C62.1534 83.7868 62.265 83.8625 62.3886 83.9152C62.5122 83.9679 62.6454 83.9966 62.7805 83.9997C62.9156 84.0028 63.0501 83.9803 63.1762 83.9334C63.3023 83.8864 63.4175 83.8161 63.5154 83.7262C63.6132 83.6364 63.6918 83.5289 63.7465 83.4098L73.91 61.393C74.0213 61.1538 74.0297 60.8818 73.9333 60.6367C73.8369 60.3915 73.6436 60.1932 73.3957 60.085ZM65.7627 60.085C65.6391 60.0323 65.5059 60.0035 65.3708 60.0003C65.2356 59.9971 65.1011 60.0197 64.975 60.0666C64.8489 60.1135 64.7336 60.1839 64.6358 60.2738C64.538 60.3637 64.4595 60.4713 64.4048 60.5904L59.3231 71.5889C59.2126 71.8293 59.2058 72.1022 59.3042 72.3475C59.4026 72.5928 59.5981 72.7904 59.8477 72.8968C60.0974 73.0033 60.3807 73.0098 60.6353 72.915C60.89 72.8203 61.0951 72.6319 61.2056 72.3915L66.2874 61.3831C66.3948 61.1437 66.4 60.8733 66.3018 60.6303C66.2036 60.3873 66.0099 60.1914 65.7627 60.085Z" fill="#B3E5FC"/>
</svg>
