<svg width="56" height="46" viewBox="0 0 56 46" fill="none" xmlns="http://www.w3.org/2000/svg">
<circle cx="12.1729" cy="5.22234" r="1.85185" fill="#FFB400"/>
<circle cx="39.3334" cy="2.75322" r="1.85185" fill="#FFB400"/>
<circle cx="54.7655" cy="16.9508" r="1.23457" fill="#FFB400"/>
<circle cx="32.5433" cy="23.1236" r="1.23457" fill="#FFB400"/>
<circle cx="47.9754" cy="28.6791" r="1.85185" fill="#FFB400"/>
<path d="M31.9814 12.6638C27.9835 14.1458 25.1358 17.9933 25.1358 22.5062C25.1358 28.3019 29.833 33.0001 35.6296 33.0001C36.3723 33.0001 37.0957 32.9231 37.795 32.7767C35.227 40.0857 28.0607 45.3458 19.6237 45.3458C9.03097 45.3458 0.444458 37.0548 0.444458 26.8272C0.444458 16.5997 9.03097 8.30872 19.6237 8.30872C24.3305 8.30872 28.6442 9.94627 31.9814 12.6638Z" fill="#FFB400"/>
</svg>
