<svg width="16" height="16" viewBox="0 0 16 16" fill="none" xmlns="http://www.w3.org/2000/svg">
<path d="M11.6517 7.33344C11.6566 7.33337 11.6616 7.33337 11.6666 7.33337C13.3235 7.33337 14.6666 8.67651 14.6666 10.3334C14.6666 11.9902 13.3235 13.3334 11.6666 13.3334H4.66665C2.8257 13.3334 1.33331 11.841 1.33331 10C1.33331 8.26691 2.65597 6.84277 4.34693 6.68184M11.6517 7.33344C11.6616 7.22364 11.6666 7.11244 11.6666 7.00004C11.6666 4.97499 10.025 3.33337 7.99998 3.33337C6.08214 3.33337 4.5082 4.80579 4.34693 6.68184M11.6517 7.33344C11.5835 8.08971 11.2857 8.77977 10.8285 9.33337M4.34693 6.68184C4.45215 6.67184 4.5588 6.66671 4.66665 6.66671C5.41719 6.66671 6.10981 6.91477 6.66698 7.33337" stroke="#757575" stroke-linecap="round" stroke-linejoin="round"/>
<path d="M5.99998 3.76975C5.53699 3.10297 4.76723 2.66663 3.8959 2.66663C2.48062 2.66663 1.33331 3.81779 1.33331 5.23782C1.33331 6.10232 1.75853 6.86716 2.41057 7.33329" stroke="#757575"/>
</svg>
