<?xml version="1.0" encoding="UTF-8"?>
<svg width="24" height="24" viewBox="0 0 24 24" fill="none" xmlns="http://www.w3.org/2000/svg">
    <path d="M12 2C8.13 2 5 5.13 5 9c0 2.38 1.19 4.47 3 5.74V17c0 .55.45 1 1 1h6c.55 0 1-.45 1-1v-2.26c1.81-1.27 3-3.36 3-5.74 0-3.87-3.13-7-7-7zm0 2c2.76 0 5 2.24 5 5 0 2.28-1.72 4.19-4 4.48V16h-2v-2.52c-2.28-.29-4-2.2-4-4.48 0-2.76 2.24-5 5-5z" fill="#757575"/>
    <path d="M12 6c-.55 0-1 .45-1 1v3c0 .55.45 1 1 1s1-.45 1-1V7c0-.55-.45-1-1-1z" fill="#757575"/>
</svg> 